<svg xmlns="http://www.w3.org/2000/svg" width="60" height="58" viewBox="0 0 60 58">
  <g fill="#0828CC" transform="translate(.111 .111)">
    <path d="M59.5374949,15.0910525 C54.7873865,10.214835 50.0653023,5.32460533 45.3151938,0.434375698 C45.1470484,0.280242386 45.0489636,0.0420363579 44.7967454,0 C37.8747585,6.8939627 30.9667837,13.8019375 24.0447967,20.6959002 C21.1302759,17.7813794 18.1877309,14.8808707 15.2591979,11.980362 L15.2031494,11.980362 C14.1942769,13.0032467 13.1854043,14.0261314 12.1625196,15.0490161 C12.1625196,15.0910525 12.1625196,15.1751252 12.1625196,15.2311737 C16.1419614,19.1545671 20.0933791,23.1059847 24.072821,27.0433902 C30.9807958,20.1494276 37.8887706,13.2414527 44.7967454,6.34749004 C47.7533026,9.36009569 50.6678234,12.4007256 53.5963563,15.4273433 C53.5823442,15.4833918 53.55432,15.5954888 53.5403078,15.6375251 C47.8093511,21.3544698 42.0783943,27.0854266 36.3474375,32.8023713 C36.291389,39.4160916 36.3614496,46.043824 36.3334253,52.6575443 C32.1578138,52.6715564 27.9681901,52.6715564 23.7785665,52.6575443 C23.7785665,46.0718483 23.7785665,39.4861522 23.7785665,32.9004561 C23.7505422,32.8584198 23.7085059,32.7603349 23.6804816,32.7182986 C18.0616218,27.0854266 12.4287498,21.4665668 6.79587786,15.8336948 C6.69779303,15.7075857 6.50162336,15.6095009 6.51563547,15.4273433 C9.44416841,12.3727013 12.3867135,9.34608357 15.3432706,6.3194658 C18.3698884,9.30404722 21.4245304,12.2465923 24.4511482,15.2171616 C25.4740329,14.1242163 26.5529661,13.0873194 27.5618387,11.980362 C23.4562877,8.01493224 19.378761,4.02147824 15.2872222,0.0280242386 C15.2451858,0.0420363579 15.1611131,0.0560484772 15.1190767,0.0700605965 C10.1447744,5.25454474 5.10041143,10.3689683 0.126109074,15.5534524 C6.50162336,21.9009425 12.8491134,28.2764567 19.2106156,34.651971 C19.266664,42.1484549 19.2106156,49.6589508 19.2386398,57.1554346 C20.6398517,57.2395073 22.0550758,57.1554346 23.4702998,57.197471 C29.2573051,57.1834589 35.0302983,57.2114831 40.8173035,57.1554346 C40.8453278,49.686975 40.8032914,42.2045033 40.8032914,34.7360437 C40.985449,34.4558014 41.2516792,34.2596317 41.4758731,34.0214257 C47.571145,27.9261538 53.6664169,21.8168698 59.7757009,15.7215979 C60.0979797,15.4833918 59.6776161,15.27321 59.5374949,15.0910525 Z"/>
    <path d="M27.8280689,49.3787084 C29.3273657,49.3927205 30.8266625,49.3927205 32.3259592,49.3787084 C32.3259592,43.1993638 32.3119471,37.0200192 32.3399713,30.8406746 C37.5384676,25.6281662 42.7369639,20.4156578 47.9494722,15.2171616 C47.9494722,15.1751252 47.9634844,15.0630282 47.9634844,15.0209919 C46.9405997,13.9981072 45.9037028,12.9892346 44.8948302,11.9523378 C39.2619583,17.5431734 33.6571106,23.1760453 28.0382507,28.780893 C27.7580083,28.9350264 27.8560932,29.2853293 27.8560932,29.5375475 C27.842081,36.1652799 27.842081,42.7790002 27.8280689,49.3787084 Z"/>
  </g>
</svg>
