<svg xmlns="http://www.w3.org/2000/svg" width="24" height="18" viewBox="0 0 24 18">
  <g fill="#01030F">
    <path d="M9.5,16.752 L0.5,16.752 C0.224,16.752 0,16.528 0,16.252 L0,1.252 C0,1.119 0.053,0.992 0.147,0.898 C0.241,0.803 0.333,0.78 0.502,0.752 C0.501,0.752 3.996,0.765 7.498,0.752 C7.504,0.752 7.509,0.752 7.515,0.752 C8.703,0.752 9.825,1.217 10.672,2.062 C11.528,2.915 12,4.048 12,5.252 C12,6.618 11.756,7.427 11.062,8.085 C13.002,8.967 13,10.705 13,12.136 L13,13.251 C13,15.181 11.43,16.752 9.5,16.752 Z M1,15.752 L9.5,15.752 C10.879,15.752 12,14.63 12,13.252 L12,12.136 C12.002,10.527 12.003,9.255 9.882,8.738 C9.685,8.69 9.536,8.528 9.506,8.328 C9.476,8.128 9.569,7.929 9.742,7.824 C10.686,7.255 11,6.803 11,5.252 C11,4.315 10.633,3.434 9.967,2.77 C9.308,2.113 8.437,1.752 7.515,1.752 C7.51,1.752 7.506,1.752 7.502,1.752 C4.794,1.762 2.09,1.757 1,1.753 L1,15.752 Z"/>
    <path d="M7 7.752L3.5 7.752C3.224 7.752 3 7.528 3 7.252L3 4.252C3 3.976 3.224 3.752 3.5 3.752L7 3.752C8.103 3.752 9 4.649 9 5.752 9 6.855 8.103 7.752 7 7.752zM4 6.752L7 6.752C7.552 6.752 8 6.303 8 5.752 8 5.201 7.552 4.752 7 4.752L4 4.752 4 6.752zM8 13.752L3.5 13.752C3.224 13.752 3 13.528 3 13.252L3 10.252C3 9.976 3.224 9.752 3.5 9.752L8 9.752C9.103 9.752 10 10.649 10 11.752 10 12.855 9.103 13.752 8 13.752zM4 12.752L8 12.752C8.552 12.752 9 12.303 9 11.752 9 11.201 8.552 10.752 8 10.752L4 10.752 4 12.752zM18 17.252C14.691 17.252 12 14.672 12 11.502 12 8.332 14.691 5.752 18 5.752 21.309 5.752 24 8.332 24 11.502 24 14.672 21.309 17.252 18 17.252zM18 6.752C15.243 6.752 13 8.883 13 11.502 13 14.121 15.243 16.252 18 16.252 20.757 16.252 23 14.121 23 11.502 23 8.883 20.757 6.752 18 6.752zM21.5 4.752L14.5 4.752C14.224 4.752 14 4.528 14 4.252L14 1.252C14 .976 14.224.752 14.5.752L21.5.752C21.776.752 22 .976 22 1.252L22 4.252C22 4.528 21.776 4.752 21.5 4.752zM15 3.752L21 3.752 21 1.752 15 1.752 15 3.752z"/>
    <path d="M23,12.752 L20.816,12.752 C20.54,12.752 20.316,12.528 20.316,12.252 C20.316,11.976 20.54,11.752 20.816,11.752 L23,11.752 C23.276,11.752 23.5,11.976 23.5,12.252 C23.5,12.528 23.276,12.752 23,12.752 Z"/>
    <g transform="translate(14 7)">
      <path d="M6.816 3.752L1.183 3.752C1.021 3.752.869 3.673.775 3.541.681 3.408.658 3.238.712 3.085 1.207 1.69 2.528.752 3.999.752 5.47.752 6.791 1.69 7.286 3.085 7.341 3.238 7.317 3.408 7.223 3.541 7.131 3.673 6.979 3.752 6.816 3.752zM2.013 2.752L5.988 2.752C5.525 2.135 4.793 1.752 4.001 1.752 3.209 1.752 2.476 2.134 2.013 2.752zM4 7.752C2.529 7.752 1.208 6.814.713 5.419.658 5.266.682 5.096.776 4.963.87 4.831 1.022 4.752 1.184 4.752L6.817 4.752C6.979 4.752 7.131 4.831 7.225 4.963 7.319 5.096 7.342 5.266 7.288 5.419 6.792 6.814 5.471 7.752 4 7.752zM2.013 5.752C2.476 6.369 3.208 6.752 4 6.752 4.792 6.752 5.524 6.369 5.987 5.752L2.013 5.752 2.013 5.752z"/>
    </g>
  </g>
</svg>
