<svg xmlns="http://www.w3.org/2000/svg" width="24" height="24" viewBox="0 0 24 24">
  <path fill="#01030F" d="M23.7567841,9.58378674 C23.5994962,8.81292854 23.3630789,8.0537206 23.0572413,7.32849255 C22.7567438,6.61637103 22.3839132,5.930948 21.950886,5.29018426 C21.521257,4.65476022 21.0285187,4.05768492 20.4857783,3.51546287 C19.9435234,2.97226998 19.3459265,2.47907607 18.7109494,2.05044396 C18.0701468,1.61598673 17.3837114,1.24463502 16.6725176,0.943184806 C15.9472456,0.637851176 15.1884771,0.400962764 14.4170868,0.244655246 C13.6272491,0.0825226027 12.813624,0 12.0009698,0 C11.1873448,0 10.3746906,0.0825226027 9.58388198,0.244655246 C8.81297708,0.400962764 8.05372313,0.638336603 7.3289366,0.943184806 C6.61774284,1.24463502 5.93130737,1.61647216 5.28953389,2.05044396 C4.65407135,2.47907607 4.05695987,2.97178455 3.51470497,3.51546287 C2.97196462,4.05768492 2.47971174,4.65524565 2.0505682,5.29018426 C1.61705556,5.930948 1.24471043,6.61637103 0.944212869,7.32849255 C0.636918912,8.0537206 0.401472515,8.81292854 0.243699157,9.58378674 C0.0820421464,10.3726057 0,11.1861815 0,11.9992719 C0,12.8138185 0.0820421464,13.6273943 0.243699157,14.4166987 C0.401472515,15.1875569 0.637404369,15.9467648 0.943727412,16.6715075 C1.24422498,17.3826581 1.61705556,18.0700229 2.05008275,18.7107866 C2.47922628,19.3462106 2.97147916,19.9423151 3.51421952,20.485508 C4.05647441,21.02773 4.65407135,21.5199531 5.28904843,21.949556 C5.93082191,22.3830424 6.61725739,22.755365 7.32845114,23.0558443 C8.05275222,23.3631197 8.81249162,23.5970955 9.58339653,23.7553448 C10.3742051,23.9184483 11.1868593,24 12.0004844,24 C12.8131385,24 13.6267636,23.9184483 14.4166013,23.7553448 C15.1884771,23.5970955 15.9467602,23.3626343 16.6720322,23.0558443 C17.3832259,22.755365 18.0696614,22.382557 18.710464,21.949556 C19.3459265,21.5199531 19.943038,21.0282154 20.4852929,20.485508 C21.0275478,19.9423151 21.5207716,19.3457252 21.9504006,18.7107866 C22.3839132,18.0700229 22.7562583,17.3826581 23.0567559,16.6715075 C23.3630789,15.9472503 23.5990108,15.1875569 23.7562987,14.4166987 C23.9184412,13.6269088 23.9999978,12.8133331 23.9999978,11.9992719 C24.0004833,11.1861815 23.9189266,10.3726057 23.7567841,9.58378674 Z M22.2450726,11.8978176 C22.0970084,11.8657794 18.6289073,11.1191926 15.1074059,11.5619021 C15.0355583,11.3866629 14.9622544,11.2099674 14.8865232,11.0327866 C14.6734078,10.5313404 14.4437869,10.0342631 14.2049423,9.54640885 C18.2526785,7.89498594 19.8959487,5.51882041 19.9148815,5.49066564 C21.3523182,7.23529055 22.2217707,9.46534253 22.2450726,11.8978176 Z M18.7692042,4.30865071 C18.743475,4.34845574 17.2841928,6.56977003 13.4160755,8.0197407 C11.664063,4.80087377 9.73922806,2.24412937 9.58533835,2.04122085 C10.3601269,1.85336057 11.1679265,1.75190631 12.0004844,1.75190631 C14.5957348,1.75190631 16.9633061,2.71887705 18.7692042,4.30865071 Z M9.54553092,2.04947311 C9.54553092,2.05044396 9.54358909,2.05141482 9.54358909,2.05141482 C9.54358909,2.05141482 9.5324236,2.05432738 9.51349079,2.0582108 C9.52368538,2.05529823 9.53533633,2.05335653 9.54553092,2.04947311 Z M7.62749234,2.73101272 C7.76390561,2.91401873 9.65961319,5.48338424 11.4334712,8.63574766 C6.51239878,9.94300277 2.24183806,9.89203293 1.97095334,9.88717866 C2.63699964,6.71297102 4.76960999,4.08098542 7.62749234,2.73101272 Z M1.75201246,11.9992719 C1.75201246,11.8900508 1.75686703,11.7832568 1.76075068,11.675492 C1.94134049,11.6793754 7.00562258,11.7944216 12.2820491,10.2153274 C12.5757503,10.790073 12.8568296,11.3740418 13.1136361,11.9575251 C12.9781937,11.9953884 12.8432368,12.0361643 12.7097363,12.0798528 C7.17893054,13.8671952 4.3734775,18.8437936 4.3734775,18.8437936 C4.3734775,18.8437936 4.37736115,18.8467062 4.37736115,18.8486479 C2.7457419,17.0326652 1.75201246,14.6322283 1.75201246,11.9992719 Z M12.0004844,22.2480937 C9.52028718,22.2480937 7.24543808,21.3665581 5.47255099,19.8995975 C5.60702243,20.0088186 5.70217191,20.0787201 5.70217191,20.0787201 C5.70217191,20.0787201 7.66681431,15.7943407 13.7442441,13.6769078 C13.7670605,13.6681701 13.789877,13.6618596 13.8126934,13.6550636 C15.2549847,17.4020752 15.8501543,20.5403612 16.0021022,21.4359742 C14.7719555,21.9592646 13.4199591,22.2480937 12.0004844,22.2480937 Z M17.7274146,20.5000708 C17.6230414,19.8811513 17.0769029,16.8734451 15.7326739,13.1798305 C19.0405744,12.650715 21.9081658,13.5579782 22.1193394,13.6273943 C21.6630103,16.4826763 20.0284783,18.9457333 17.7274146,20.5000708 Z"/>
</svg>
