<svg xmlns="http://www.w3.org/2000/svg" width="49" height="38" viewBox="0 0 49 38">
  <path fill="#2A4BF7" fill-rule="evenodd" d="M88.3018748,84.048 C88.0833949,84.048332 87.8740002,84.1353283 87.7197764,84.2898419 C87.5655527,84.4443554 87.4791397,84.6537226 87.4795561,84.8718638 L87.4795561,121.127823 C87.4790563,121.346018 87.5654325,121.555466 87.7196653,121.710047 C87.8738981,121.864629 88.0833405,121.951668 88.3018748,121.952 L134.346076,121.952 C134.56461,121.951668 134.774052,121.864629 134.928285,121.710047 C135.082518,121.555466 135.168894,121.346018 135.168394,121.127823 L135.168394,84.8718638 C135.168811,84.6537226 135.082398,84.4443554 134.928174,84.2898419 C134.77395,84.1353283 134.564556,84.048332 134.346076,84.048 L88.3018748,84.048 Z M89.1238798,120.303959 L89.1238798,85.6960409 L133.524071,85.6960409 L133.524071,120.303959 L89.1238798,120.303959 Z M104.893308,99.4684899 C105.610025,97.7542926 105.221002,95.7777611 103.907895,94.461838 C102.594789,93.1459149 100.61664,92.7501986 98.8971469,93.459469 C97.1776541,94.1687394 96.0560298,95.8430755 96.0560171,97.7006449 C96.0539304,100.229281 98.1025363,102.28228 100.635087,102.289535 C102.495526,102.296382 104.176592,101.182687 104.893308,99.4684899 Z M103.36402,96.5673961 C103.823431,97.6658418 103.574324,98.9324734 102.733007,99.7758988 C101.891691,100.619324 100.624114,100.873179 99.5221102,100.418937 C98.4201061,99.9646961 97.7010439,98.8919575 97.7006546,97.7015847 C97.7001275,96.0815597 99.0125559,94.7665416 100.635087,94.761362 C101.827299,94.7553579 102.904609,95.4689505 103.36402,96.5673961 Z M93.7776201,116.802695 L107.190733,104.968502 L115.661777,113.457745 C115.870207,113.665125 116.173612,113.745728 116.457702,113.669191 C116.741792,113.592655 116.963407,113.370607 117.039067,113.086691 C117.114726,112.802775 117.032936,112.500125 116.824506,112.292745 L112.871353,108.33162 L120.420307,100.047247 L129.677903,108.552153 C130.014057,108.858461 130.535261,108.834689 130.842044,108.499056 C131.148828,108.163423 131.125019,107.643027 130.788865,107.336719 L120.924491,98.2726507 C120.762512,98.1272054 120.55051,98.0498763 120.332773,98.0568172 C120.11449,98.0667117 119.909135,98.1629741 119.762076,98.324338 L111.709251,107.163488 L107.809433,103.255304 C107.503132,102.948006 107.010064,102.932214 106.684667,103.219279 L92.6917578,115.565019 C92.3504263,115.866441 92.3173286,116.386642 92.6177147,116.728766 C92.7734974,116.906473 92.9986308,117.008243 93.2351596,117.007877 C93.4350136,117.00795 93.6279788,116.934962 93.7776201,116.802695 Z" transform="translate(-87 -84)"/>
</svg>
