<svg xmlns="http://www.w3.org/2000/svg" width="24" height="24" viewBox="0 0 24 24">
  <g fill="#01030F">
    <path d="M3 6.002C1.346 6.002 0 4.656 0 3.002 0 1.348 1.346.002 3 .002 4.654.002 6 1.348 6 3.002 6 4.656 4.654 6.002 3 6.002zM3 1.002C1.897 1.002 1 1.899 1 3.002 1 4.105 1.897 5.002 3 5.002 4.103 5.002 5 4.105 5 3.002 5 1.899 4.103 1.002 3 1.002zM5.5 24.002L.5 24.002C.224 24.002 0 23.778 0 23.502L0 8.502C0 8.226.224 8.002.5 8.002L5.5 8.002C5.776 8.002 6 8.226 6 8.502L6 23.502C6 23.779 5.776 24.002 5.5 24.002zM1 23.002L5 23.002 5 9.002 1 9.002 1 23.002zM23.5 24.002L18.5 24.002C18.224 24.002 18 23.778 18 23.502L18 14.502C18 13.367 17.527 12.515 16.701 12.166 15.848 11.804 14.807 12.026 14 12.722L14 23.502C14 23.778 13.776 24.002 13.5 24.002L8.5 24.002C8.224 24.002 8 23.778 8 23.502L8 8.502C8 8.226 8.224 8.002 8.5 8.002L13.5 8.002C13.733 8.002 13.929 8.162 13.984 8.377 15.588 7.223 18.26 6.581 20.397 7.313 22.01 7.866 23.943 9.386 24 13.496L24 23.503C24 23.779 23.776 24.002 23.5 24.002zM19 23.002L23 23.002 23 13.502C22.962 10.717 21.949 8.901 20.073 8.259 17.743 7.461 14.807 8.666 13.89 9.814 13.757 9.981 13.533 10.043 13.334 9.974 13.134 9.904 13 9.715 13 9.502L13 9.002 9 9.002 9 23.002 13 23.002 13 12.502C13 12.367 13.055 12.237 13.151 12.144 14.269 11.058 15.818 10.708 17.09 11.245 18.304 11.759 19 12.946 18.999 14.502L18.999 23.002 19 23.002z"/>
  </g>
</svg>
