<?xml version="1.0" encoding="UTF-8"?>
<svg width="80px" height="80px" viewBox="0 0 80 80" version="1.1" xmlns="http://www.w3.org/2000/svg" xmlns:xlink="http://www.w3.org/1999/xlink">
    <!-- Generator: Sketch 46.2 (44496) - http://www.bohemiancoding.com/sketch -->
    <title>ym_logo</title>
    <desc>Created with Sketch.</desc>
    <defs></defs>
    <g id="Portfolio" stroke="none" stroke-width="1" fill="none" fill-rule="evenodd">
        <g id="Desktop-HD" transform="translate(-249.000000, -41.000000)" fill-rule="nonzero">
            <g id="Header" transform="translate(1.000000, 1.000000)">
                <g id="ym_logo" transform="translate(248.000000, 40.000000)">
                    <circle id="Oval" fill="#0828CC" cx="40" cy="40" r="40"></circle>
                    <path d="M30.8247277,48.0980984 C30.6716192,49.3706834 29.9806519,50.5766465 28.9259259,51.3724349 C27.8148148,52.249458 26.1851852,52.6148843 24.7777778,52.3225433 C23.7407407,52.1032875 22.9259259,51.5916907 22.1851852,50.9339233 C21.1481481,52.0302022 20.037037,53.0533959 19,54.1496748 C19,54.1496748 19,54.2227601 19,54.2227601 C20.7777778,55.9768063 23.2222222,57 25.7407407,57 C27.8888889,57 29.962963,56.3422327 31.6666667,55.0997832 C33.4444444,53.7842485 34.7777778,51.8840317 35.2962963,49.7645592 C35.4444444,49.1067918 35.5185185,48.3759392 35.5925926,47.6450866 C35.5925926,45.0140172 35.5925926,42.456033 35.5925926,39.8980489 C35.5185185,37.9247469 36.7777778,36.0245301 38.5555556,35.2205922 C39.5185185,34.7820806 40.7037037,34.6359101 41.7407407,34.8551659 C43,35.1475069 44.1111111,35.8783595 44.8518519,36.9015532 C45.3703704,37.6324058 45.6666667,38.5094289 45.7407407,39.4595373 C45.7407407,41.2135836 45.7407407,43.0407151 45.7407407,44.8678467 C45.7407407,46.4757224 46.7037037,48.0105129 48.1111111,48.7413655 C48.7777778,49.1067918 49.5185185,49.3260476 50.3333333,49.3260476 C50.3333333,46.1102961 50.3333333,42.9676299 50.3333333,39.8249636 C50.3333333,38.4363437 50.9259259,36.9746385 51.962963,36.0245301 C53.2222222,34.8551659 55,34.4166543 56.6296296,34.8551659 C58.7037037,35.3667627 60.3333333,37.3400648 60.4074074,39.4595373 C60.4074074,40.8481573 60.4074074,42.163692 60.4074074,43.552312 C60.4074074,44.3562498 60.3333333,45.1601877 60.5555556,45.9641256 C61,47.9374276 63,49.3991328 65,49.3260476 C65,46.2564666 65,43.2599709 65,40.19039 C65,39.6787931 65,39.1671963 64.9259259,38.6555995 C64.7037037,36.0245301 63.2222222,33.5396312 61.0740741,32.0048407 C59.2962963,30.689306 57.0740741,30.0315387 54.9259259,30.1046239 C52.7777778,30.1046239 50.6296296,30.9816471 49,32.370267 C48.6296296,32.6626081 48.2592593,33.0280344 47.962963,33.3934607 C47.0740741,32.4433523 46.1111111,31.6394144 44.9259259,31.0547323 C43.3703704,30.2507944 41.5925926,29.8853681 39.8148148,30.0315387 C37.2222222,30.1777092 34.7037037,31.4932439 33.0740741,33.5396312 C31.7407407,35.1475069 30.9259259,37.2669795 30.8518519,39.6787931 C30.8518519,40.5600178 30.8518519,41.4412425 30.8518519,42.3224672 C30.7260674,42.450775 30.5855118,42.6043201 30.4814815,42.7578651 C29.6666667,43.7053977 28.4814815,44.2884948 27.2222222,44.434269 C26.8518519,44.434269 26.4814815,44.434269 26.1111111,44.434269 C25.2222222,44.3613819 24.3333333,43.9969462 23.5925926,43.4138492 C22.3333333,42.4663166 21.5925926,40.935687 21.6666667,39.4050573 C21.6666667,37.8015405 21.6666667,36.2709109 21.6666667,34.6673941 C21.5925926,34.2300714 21.5925926,33.7198615 21.4444444,33.2825387 C20.9259259,31.3874735 19,29.9297309 17,30.0026181 C17,33.2096516 17,36.343798 17.0740741,39.4050573 C17,40.7899127 17.2962963,42.101881 17.8888889,43.3409621 C18.8518519,45.4546888 20.6296296,47.2039798 22.7777778,48.1515124 C25,49.1719322 27.5185185,49.2448193 29.8148148,48.5159481 C30.1739675,48.374589 30.5331203,48.3017687 30.8247277,48.0980984 Z" id="Combined-Shape" fill="#FFFFFF"></path>
                </g>
            </g>
        </g>
    </g>
</svg>