<svg xmlns="http://www.w3.org/2000/svg" width="23" height="19" viewBox="0 0 23 19">
  <path fill="#01030F" d="M7.64476072,19 C5.49476974,19 3.00678019,18.444846 0.254791746,16.8910183 C0.0467926194,16.7733498 -0.0492069776,16.5249386 0.0247927117,16.2976473 C0.098792401,16.070356 0.321791465,15.9205046 0.557790474,15.9536932 C2.37178286,16.1628816 4.35277454,15.7354533 5.83276833,14.8614881 C4.13777544,14.461214 2.76778119,13.3539232 2.04478423,11.745787 C1.96378457,11.5657642 1.99478444,11.3545644 2.12478389,11.2067245 C2.25478335,11.0578788 2.45878249,11.0005531 2.6467817,11.0578788 C2.86478079,11.1252616 3.08177988,11.1715245 3.290779,11.1966673 C2.0037844,10.4242792 0.625790188,8.94588003 0.625790188,6.73029272 C0.625790188,6.53618998 0.736789722,6.35918436 0.910788992,6.27571013 C1.08478826,6.1932416 1.29178739,6.21637302 1.43978677,6.33907009 C1.5997861,6.46981287 1.77078538,6.57943567 1.94778464,6.66592705 C1.57978618,6.16307019 1.26078752,5.54254483 1.07878829,4.83854523 C0.74678968,3.54922025 0.93978887,2.24179243 1.63578595,1.06108453 C1.71978559,0.918273186 1.86778497,0.827758952 2.03178428,0.815690388 C2.18778363,0.80563325 2.35378293,0.874021783 2.4567825,1.00375885 C3.92877632,2.85326637 6.54476534,5.08796223 10.7507477,5.49527629 C10.672748,4.15667134 11.0727463,1.96320973 12.9107386,0.88407892 C15.1717291,-0.443463179 17.34672,-0.272491848 19.2157121,1.3738615 C20.0437087,1.18881017 21.3507032,0.617564786 21.621702,0.427484895 C21.7937013,0.30679925 22.0227003,0.305793536 22.1946996,0.427484895 C22.3666989,0.549176254 22.4456986,0.764398988 22.3916988,0.968558872 C22.2666993,1.44225003 21.9837005,1.96924401 21.631702,2.43991803 C21.9107008,2.35644379 22.1456998,2.27196384 22.2706993,2.20759816 C22.4706985,2.10400965 22.7156974,2.14725534 22.8686968,2.31420382 C23.0216962,2.48115229 23.0426961,2.73157501 22.9226966,2.92266061 C22.334699,3.85797436 21.383703,4.72892244 20.7487057,5.20160788 C21.0917043,9.45074831 18.6227146,14.1987227 14.6597313,16.8447555 C13.1897374,17.8253264 10.7737476,19 7.64476072,19 Z M2.64978169,16.9453269 C8.00075922,19.1528685 12.0527422,17.3757724 14.1057336,16.0049846 C17.8617178,13.4967346 20.1727081,8.97705715 19.72571,5.01353942 C19.7047101,4.82446524 19.7897097,4.64041963 19.9477091,4.53683112 C20.2167079,4.35881979 20.6277062,4.03196284 21.0417045,3.62666021 C20.6347062,3.71516302 20.2397078,3.77450013 19.952709,3.77550584 C19.6767102,3.74231729 19.5057109,3.60554022 19.4607111,3.36819179 C19.4147113,3.13084335 19.5437108,2.89450063 19.7667098,2.80599782 C20.0497086,2.69235217 20.431707,2.3494038 20.7617056,1.92901547 C20.195708,2.14926677 19.5837106,2.34437523 19.1337125,2.40974662 C18.9847131,2.43287804 18.8317137,2.38259235 18.7207142,2.27799812 C17.1427208,0.787530404 15.3587283,0.61052479 13.4147365,1.75100414 C11.6697438,2.77683212 11.630744,5.16741362 11.8147432,5.92270461 C11.852743,6.07758452 11.8147432,6.24051015 11.7137436,6.36320722 C11.6127441,6.48590429 11.4587447,6.55127568 11.3017454,6.5452414 C6.83076413,6.30789296 3.92677633,4.18583703 2.17978366,2.22871815 C1.82178517,3.16503762 1.89778485,4.00480857 2.04778422,4.58611109 C2.34178298,5.72558473 3.08177988,6.59954994 3.64377752,6.92942404 C3.82377676,7.03401826 3.91977636,7.24119529 3.8857765,7.44636089 C3.85177664,7.6525322 3.6947773,7.81646353 3.49077816,7.85669208 C2.92178055,7.97033773 2.30878312,7.90094348 1.73878552,7.67063504 C2.25978333,9.76754813 4.42777422,10.755159 5.03777166,10.8235475 C5.23677083,10.8456732 5.40277013,10.9844617 5.46176988,11.176553 C5.51976964,11.3686444 5.4587699,11.5778328 5.30577054,11.7075699 C4.86877237,12.0786782 4.21477512,12.2576953 3.47777821,12.2204839 C4.3137747,13.3408489 5.60976926,13.9845057 7.15876276,14.0187 C7.3637619,14.0237286 7.54576113,14.1534656 7.61676083,14.3475684 C7.68776054,14.5406654 7.63476076,14.7589053 7.4817614,14.8956823 C6.25376656,16.0019674 4.49177396,16.7290984 2.64978169,16.9453269 Z"/>
</svg>
